#!OML:ASF F:\VICON\USERDATA\INSTALL\rory3\rory3.ASF
:FULLY-SPECIFIED
:DEGREES
99
root 1.5209853035879433 17.91811024349954 59.677107159820544 -3.693702130949351 2.5996344521202595 1.5474476440487916
lfemur 2.2665096598136643 -4.470578602821044 -26.3799506640433
ltibia 22.695933478192643
lfoot -9.351687550059246 -1.928960198374231
ltoes -13.289545645411481
rfemur -24.9441648151942 -2.7703379618687087 20.18653237297292
rtibia 59.21882488531127
rfoot -8.694991878925796 -6.816398890027349
rtoes 2.9578852241996314
lowerback nan -1.313096748235555 -2.7711308383647024
upperback -0.19154180494921763 -1.912554599966518 1.0736352144210295
thorax -6.010940440283364 -0.8821592109163264 2.8365573552575105
lowerneck -16.928867825913436 -3.726203533172776 -1.6702308674849875
upperneck 21.216078995532612 -5.136431408976756 2.440978150706177
head 9.70739866322414 -2.2672390413164054 0.4566127196918446
lclavicle -2.5675976257641504e-15 -2.7655182291304476e-15
lhumerus -25.717997241740743 -1.6568738691393796 81.19934972606887
lradius 29.62398173702193
lwrist 7.874774863576397
lhand -29.582641018083297 18.639885887546434
lfingers nan
lthumb -2.6462760599300843 49.173994722709175
rclavicle -2.5389281962570892e-15 -2.743264343286493e-15
rhumerus -31.316718107662098 -19.330109886250078 -77.08069721830358
rradius 32.50797779028291
rwrist 0.7968598733599803
rhand -17.50376775942429 nan
rfingers nan
rthumb 8.693866929761887 -7.440102565063615
100
root 1.5361382893867335 17.925542065119895 59.57500184324507 -3.5090422779671293 2.02679939531925 0.5644071452759336
lfemur 4.7236687212599655 -4.382143774059884 -25.601608124911042
ltibia 22.20318667958567
lfoot -8.006456315525723 -3.732860207508211
ltoes -14.56239132998211
rfemur -25.760327675605197 -1.8464057532981757 21.718840253395438
rtibia 55.826971315402204
rfoot -9.154197960620301 -6.604093381414843
rtoes 1.657466284176651
lowerback nan -1.5575852805578672 -2.2797849075019014
upperback -0.28657788183039545 -2.1745381583622945 1.3586853185618355
thorax -6.015415277664266 -1.0035895041190632 3.2193294139503856
lowerneck -16.96454987134512 -3.6452238594226696 -1.7038463850324503
upperneck 21.301665045473637 -4.993141801390128 2.3154758070539474
head 9.7343988458207 -2.2211607417511607 0.44171671096214404
lclavicle -2.5639200018825235e-15 -2.7615610956820575e-15
lhumerus -25.596409626072134 -1.9059115645765412 81.09632114700439
lradius 29.51567978435334
lwrist 8.023105439701869
lhand -29.59678047760469 18.692631898408667
lfingers nan
lthumb -2.621307271930653 49.307470535221086
rclavicle -2.5371892030719887e-15 -2.7380628518657515e-15
rhumerus -31.661478421573417 -19.680491102216305 -77.11199503677639
rradius 32.424740599594756
rwrist 0.8981212275969579
rhand -17.505941613885074 nan
rfingers nan
rthumb 8.72263861085377 -7.310421859021904
101
root 1.531130748464379 17.929095071360717 58.94644666396269 -3.3536580538519316 1.462738920388877 -0.20112056703945713
lfemur 6.9008364963819115 -4.201059623455739 -24.8605804708359
ltibia 21.982957866393534
lfoot -5.421228504293423 -4.333869369818143
ltoes -15.721577430617387
rfemur -26.610707680950426 -1.0696564043429402 22.593344313415937
rtibia 51.513153466090245
rfoot -9.472172732928968 -6.386393030075117
rtoes 0.41031534244335566
lowerback nan -1.7607038232145213 -1.9300000137244762
upperback -0.3764798670059081 -2.372661246246036 1.6305985583534475
thorax -6.022130068321043 -1.0949944643368446 3.5657242160591602
lowerneck -16.97701569074663 -3.5657159534272385 -1.750476432282194
upperneck 21.436989775483017 -4.8492280359308175 2.1657280121586844
head 9.77268093874876 -2.175525840508124 0.42005535961578877
lclavicle -2.5614605232799017e-15 -2.758641408453049e-15
lhumerus -25.625347297998246 -1.983585704949777 81.05573857598858
lradius 29.203395470859213
lwrist 8.182174400986202
lhand -29.559194029027644 18.805920548913214
lfingers nan
lthumb -2.604877754575853 49.34524118018042
rclavicle -2.5354086907188074e-15 -2.73353131104022e-15
rhumerus -31.99294197345181 -20.114323025343722 -77.16519677717064
rradius 32.31811196927962
rwrist 1.249080303296552
rhand -17.475752900116664 nan
rfingers nan
rthumb 8.717163748901347 -7.2321205904406645
102
root 1.5257985096428799 17.924624738387354 57.63926586257055 -3.359002511859528 0.8340731720235459 -0.23619831232322896
lfemur 8.972645793322213 -3.9983377525235264 -24.650826267937646
ltibia 21.976917659069535
lfoot -4.7985634325913455 -6.0994774809107675
ltoes -14.272043126269352
rfemur -26.212169593987525 -0.5592209574918319 22.973964388128742
rtibia 46.39951741071217
rfoot -9.797210491745926 -6.12848173894895
rtoes -0.7787029583043705
lowerback nan -1.8886169877723853 -2.073215198566583
upperback -0.41352832258728994 -2.5404672312972316 1.7843114187699378
thorax -5.98231974437427 -1.1755324329936874 3.8820548120366203
lowerneck -16.96227713124507 -3.4940003069371923 -1.8109200396420404
upperneck 21.59209354288812 -4.715270010459727 2.008843732241756
head 9.815440815078228 -2.1332053208631034 0.39443227467140973
lclavicle -2.5606364661094114e-15 -2.7569308867875295e-15
lhumerus -25.748230300519104 -1.871330410854299 81.10890319550828
lradius 28.67788436244591
lwrist 8.274879718548604
lhand -29.590166887653965 18.696544157972497
lfingers nan
lthumb -2.606997544604102 49.2984626127375
rclavicle -2.5332937507900256e-15 -2.7293103949369516e-15
rhumerus -32.260304828468385 -20.57458444712892 -77.22858927032904
rradius 32.18171153165797
rwrist 1.8009108266512635
rhand -17.4716420712406 nan
rfingers nan
rthumb 8.759421543507633 -7.054764817638051
103
root 1.5602520684338885 17.92973153706477 58.47014614962408 -3.282237232431379 0.6185465331209796 0.13937496602180266
lfemur 10.541868428343532 -3.9620330303523197 -24.745609357829704
ltibia 22.56507053405096
lfoot -3.6155143415839355 -5.991396761708124
ltoes -13.198854090901172
rfemur -25.967250125886416 -0.6221900769328705 22.768190286076198
rtibia 41.18428013386958
rfoot -10.22007721954797 -6.021653522777694
rtoes -1.77209371294675
lowerback nan -2.021958604391636 -2.3391744366691105
upperback -0.41926476383122896 -2.7094261184375403 1.8801122978715952
thorax -5.911840694911339 -1.2555864825350738 4.1255277716331245
lowerneck -16.923844385332327 -3.4362578449408203 -1.8844541348155701
upperneck 21.73380053803885 -4.601216435710976 1.8632922311058366
head 9.853015960727856 -2.0977840324840575 0.368572657079704
lclavicle -2.560731514084274e-15 -2.7559678103604784e-15
lhumerus -25.997186363712707 -1.6331052826338444 81.23828355175206
lradius 27.958110115457135
lwrist 8.354468971961873
lhand -29.586137296817395 18.703157781622444
lfingers nan
lthumb -2.6270259395031386 49.22003693432298
rclavicle -2.530049295223278e-15 -2.7248618458142977e-15
rhumerus -32.38104907763414 -20.955084856393942 -77.27642226711819
rradius 32.036976465104416
rwrist 2.3361980407671252
rhand -17.45961220388896 nan
rfingers nan
rthumb 8.732564668296574 -7.076844417436533
